<svg width="1198" height="470" viewBox="0 0 1198 470" fill="none" xmlns="http://www.w3.org/2000/svg">
<g filter="url(#filter0_f_12_217)">
<path d="M346.4 420.4C336.133 420.4 327.133 418.2 319.4 413.8C311.667 409.4 305.6 403.333 301.2 395.6C296.933 387.733 294.8 378.733 294.8 368.6C294.8 359.4 296.333 351.067 299.4 343.6C302.6 336 306.933 329.467 312.4 324C318 318.533 324.4 314.333 331.6 311.4C338.933 308.333 346.667 306.8 354.8 306.8C363.467 306.8 371 308.533 377.4 312C383.933 315.333 388.933 319.933 392.4 325.8L386.8 330.8L395.6 266.6H422.2L401.2 418H376.2L379 397L384.8 401C380.8 407.4 375.333 412.267 368.4 415.6C361.6 418.8 354.267 420.4 346.4 420.4ZM350 396.4C356.533 396.4 362.267 394.8 367.2 391.6C372.267 388.267 376.2 383.867 379 378.4C381.8 372.8 383.2 366.667 383.2 360C383.2 354.4 382 349.4 379.6 345C377.333 340.6 374.133 337.133 370 334.6C366 332.067 361.267 330.8 355.8 330.8C349.267 330.8 343.467 332.467 338.4 335.8C333.333 339 329.333 343.333 326.4 348.8C323.6 354.267 322.2 360.4 322.2 367.2C322.2 372.933 323.333 378 325.6 382.4C328 386.667 331.267 390.067 335.4 392.6C339.667 395.133 344.533 396.4 350 396.4ZM425.389 418L440.589 309.2H466.989L451.789 418H425.389ZM442.189 297L446.189 269H472.589L468.789 297H442.189ZM519.17 420.4C511.57 420.4 504.57 419.133 498.17 416.6C491.77 413.933 486.437 410.267 482.17 405.6C477.904 400.8 474.97 395.267 473.37 389L493.57 380.8C495.97 386.8 499.437 391.467 503.97 394.8C508.637 398.133 514.037 399.8 520.17 399.8C525.504 399.8 529.637 398.6 532.57 396.2C535.637 393.8 537.17 390.867 537.17 387.4C537.17 384.333 536.037 382 533.77 380.4C531.504 378.8 528.97 377.667 526.17 377L508.77 372C500.77 369.733 494.57 366.067 490.17 361C485.904 355.8 483.77 349.6 483.77 342.4C483.77 335.6 485.637 329.533 489.37 324.2C493.104 318.867 498.17 314.667 504.57 311.6C511.104 308.4 518.37 306.8 526.37 306.8C536.904 306.8 545.904 309.4 553.37 314.6C560.97 319.667 565.97 326.667 568.37 335.6L547.77 343.8C546.57 339 543.837 335.2 539.57 332.4C535.437 329.6 530.704 328.2 525.37 328.2C520.704 328.2 516.837 329.267 513.77 331.4C510.837 333.533 509.37 336.333 509.37 339.8C509.37 343 510.504 345.4 512.77 347C515.037 348.6 517.704 349.8 520.77 350.6L537.57 355.8C545.837 358.333 552.104 362.133 556.37 367.2C560.77 372.133 562.97 378.067 562.97 385C562.97 391.667 561.104 397.667 557.37 403C553.637 408.333 548.437 412.6 541.77 415.8C535.237 418.867 527.704 420.4 519.17 420.4ZM572.914 458L593.714 309.2H618.514L615.714 330.8L610.114 325C614.381 319.133 619.781 314.667 626.314 311.6C632.981 308.4 640.314 306.8 648.314 306.8C658.447 306.8 667.381 309.2 675.114 314C682.847 318.667 688.914 325 693.314 333C697.847 341 700.114 350 700.114 360C700.114 368.267 698.581 376.067 695.514 383.4C692.581 390.733 688.447 397.2 683.114 402.8C677.781 408.267 671.581 412.6 664.514 415.8C657.447 418.867 649.847 420.4 641.714 420.4C633.181 420.4 625.447 418.8 618.514 415.6C611.714 412.267 606.514 407.667 602.914 401.8L608.514 397L600.314 458H572.914ZM639.114 396.4C645.647 396.4 651.447 394.8 656.514 391.6C661.581 388.267 665.514 383.867 668.314 378.4C671.247 372.933 672.714 366.867 672.714 360.2C672.714 354.467 671.514 349.4 669.114 345C666.847 340.6 663.647 337.133 659.514 334.6C655.381 332.067 650.447 330.8 644.714 330.8C638.314 330.8 632.581 332.467 627.514 335.8C622.581 339 618.714 343.333 615.914 348.8C613.114 354.267 611.714 360.333 611.714 367C611.714 372.733 612.847 377.867 615.114 382.4C617.514 386.8 620.781 390.267 624.914 392.8C629.047 395.2 633.781 396.4 639.114 396.4ZM768.894 420.4C758.227 420.4 748.894 418.067 740.894 413.4C733.027 408.733 726.894 402.4 722.494 394.4C718.227 386.267 716.094 377.2 716.094 367.2C716.094 358.933 717.494 351.2 720.294 344C723.227 336.667 727.294 330.2 732.494 324.6C737.827 319 743.96 314.667 750.894 311.6C757.827 308.4 765.427 306.8 773.694 306.8C784.36 306.8 793.427 309 800.894 313.4C808.36 317.8 814.027 323.733 817.894 331.2C821.76 338.533 823.694 346.8 823.694 356C823.694 358.4 823.494 360.867 823.094 363.4C822.694 365.933 822.16 368.467 821.494 371H737.494L738.894 351H807.894L794.894 360C796.627 354 796.76 348.667 795.294 344C793.96 339.2 791.36 335.4 787.494 332.6C783.76 329.8 779.094 328.4 773.494 328.4C766.16 328.4 760.227 330.2 755.694 333.8C751.294 337.4 748.027 342.333 745.894 348.6C743.894 354.733 742.894 361.6 742.894 369.2C742.894 375.067 743.96 380.133 746.094 384.4C748.36 388.667 751.494 391.933 755.494 394.2C759.494 396.333 764.16 397.4 769.494 397.4C775.494 397.4 780.76 396.067 785.294 393.4C789.827 390.733 793.427 387.333 796.094 383.2L816.894 394C814.36 399.2 810.694 403.8 805.894 407.8C801.227 411.8 795.694 414.933 789.294 417.2C783.027 419.333 776.227 420.4 768.894 420.4ZM835.35 418L850.55 309.2H875.35L872.15 333.4L870.35 329.8C874.083 321.667 878.817 316 884.55 312.8C890.417 309.6 897.15 308 904.75 308H911.15L907.95 331.2H898.55C891.083 331.2 884.75 333.6 879.55 338.4C874.483 343.067 871.217 350.067 869.75 359.4L861.75 418H835.35ZM953.155 420.4C945.555 420.4 938.555 419.133 932.155 416.6C925.755 413.933 920.421 410.267 916.155 405.6C911.888 400.8 908.955 395.267 907.355 389L927.555 380.8C929.955 386.8 933.421 391.467 937.955 394.8C942.621 398.133 948.021 399.8 954.155 399.8C959.488 399.8 963.621 398.6 966.555 396.2C969.621 393.8 971.155 390.867 971.155 387.4C971.155 384.333 970.021 382 967.755 380.4C965.488 378.8 962.955 377.667 960.155 377L942.755 372C934.755 369.733 928.555 366.067 924.155 361C919.888 355.8 917.755 349.6 917.755 342.4C917.755 335.6 919.621 329.533 923.355 324.2C927.088 318.867 932.155 314.667 938.555 311.6C945.088 308.4 952.355 306.8 960.355 306.8C970.888 306.8 979.888 309.4 987.355 314.6C994.955 319.667 999.955 326.667 1002.35 335.6L981.755 343.8C980.555 339 977.821 335.2 973.555 332.4C969.421 329.6 964.688 328.2 959.355 328.2C954.688 328.2 950.821 329.267 947.755 331.4C944.821 333.533 943.355 336.333 943.355 339.8C943.355 343 944.488 345.4 946.755 347C949.021 348.6 951.688 349.8 954.755 350.6L971.555 355.8C979.821 358.333 986.088 362.133 990.355 367.2C994.755 372.133 996.955 378.067 996.955 385C996.955 391.667 995.088 397.667 991.355 403C987.621 408.333 982.421 412.6 975.755 415.8C969.221 418.867 961.688 420.4 953.155 420.4ZM1012.5 418L1027.7 309.2H1054.1L1038.9 418H1012.5ZM1029.3 297L1033.3 269H1059.7L1055.9 297H1029.3ZM1098.88 420.4C1091.95 420.4 1085.75 419.267 1080.28 417C1074.95 414.733 1070.75 411.4 1067.68 407C1064.61 402.6 1063.08 397.2 1063.08 390.8C1063.08 383.867 1064.81 377.933 1068.28 373C1071.75 368.067 1076.55 364.067 1082.68 361C1088.81 357.8 1095.88 355.6 1103.88 354.4L1140.48 348.6L1138.48 368.6L1107.68 374C1102.75 374.933 1098.61 376.667 1095.28 379.2C1091.95 381.6 1090.28 384.933 1090.28 389.2C1090.28 392.933 1091.61 395.733 1094.28 397.6C1097.08 399.467 1100.61 400.4 1104.88 400.4C1110.21 400.4 1115.01 399.2 1119.28 396.8C1123.55 394.267 1127.08 390.933 1129.88 386.8C1132.68 382.667 1134.35 378.133 1134.88 373.2L1138.68 346C1139.21 342.4 1138.61 339.4 1136.88 337C1135.28 334.467 1133.01 332.533 1130.08 331.2C1127.15 329.867 1123.95 329.2 1120.48 329.2C1114.48 329.2 1109.08 330.8 1104.28 334C1099.61 337.2 1096.01 341.267 1093.48 346.2L1072.88 334.6C1075.68 328.867 1079.48 324 1084.28 320C1089.21 315.867 1094.88 312.667 1101.28 310.4C1107.81 308 1114.75 306.8 1122.08 306.8C1130.88 306.8 1138.68 308.533 1145.48 312C1152.41 315.467 1157.68 320.2 1161.28 326.2C1164.88 332.2 1166.08 339.2 1164.88 347.2L1155.08 418H1130.08L1132.68 399.4L1139.28 399.6C1135.95 404.267 1132.21 408.133 1128.08 411.2C1123.95 414.267 1119.41 416.533 1114.48 418C1109.68 419.6 1104.48 420.4 1098.88 420.4Z" fill="white" fill-opacity="0.08"/>
<path d="M12.6 182L33.8 30.6H60.2L39 182H12.6ZM98.9813 184.4C92.0479 184.4 85.8479 183.267 80.3813 181C75.0479 178.733 70.8479 175.4 67.7813 171C64.7146 166.6 63.1813 161.2 63.1813 154.8C63.1813 147.867 64.9146 141.933 68.3813 137C71.8479 132.067 76.6479 128.067 82.7813 125C88.9146 121.8 95.9813 119.6 103.981 118.4L140.581 112.6L138.581 132.6L107.781 138C102.848 138.933 98.7146 140.667 95.3813 143.2C92.0479 145.6 90.3813 148.933 90.3813 153.2C90.3813 156.933 91.7146 159.733 94.3813 161.6C97.1813 163.467 100.715 164.4 104.981 164.4C110.315 164.4 115.115 163.2 119.381 160.8C123.648 158.267 127.181 154.933 129.981 150.8C132.781 146.667 134.448 142.133 134.981 137.2L138.781 110C139.315 106.4 138.715 103.4 136.981 101C135.381 98.4667 133.115 96.5333 130.181 95.2C127.248 93.8667 124.048 93.2 120.581 93.2C114.581 93.2 109.181 94.8 104.381 98C99.7146 101.2 96.1146 105.267 93.5813 110.2L72.9813 98.6C75.7813 92.8667 79.5813 88 84.3813 84C89.3146 79.8667 94.9813 76.6667 101.381 74.4C107.915 72 114.848 70.8 122.181 70.8C130.981 70.8 138.781 72.5333 145.581 76C152.515 79.4667 157.781 84.2 161.381 90.2C164.981 96.2 166.181 103.2 164.981 111.2L155.181 182H130.181L132.781 163.4L139.381 163.6C136.048 168.267 132.315 172.133 128.181 175.2C124.048 178.267 119.515 180.533 114.581 182C109.781 183.6 104.581 184.4 98.9813 184.4Z" fill="white" fill-opacity="0.08"/>
</g>
<defs>
<filter id="filter0_f_12_217" x="0.600098" y="18.6" width="1178.08" height="451.4" filterUnits="userSpaceOnUse" color-interpolation-filters="sRGB">
<feFlood flood-opacity="0" result="BackgroundImageFix"/>
<feBlend mode="normal" in="SourceGraphic" in2="BackgroundImageFix" result="shape"/>
<feGaussianBlur stdDeviation="6" result="effect1_foregroundBlur_12_217"/>
</filter>
</defs>
</svg>
